<svg xmlns="http://www.w3.org/2000/svg" width="25" height="24" viewBox="0 0 25 24">
  <defs>
    <style>
      .cls-1 {
        fill: #6c3d15;
        fill-rule: evenodd;
      }
    </style>
  </defs>
  <path id="slouse.svg" class="cls-1" d="M1332.7,270.994l9.83-9.444a1.461,1.461,0,0,0,0-2.124,1.607,1.607,0,0,0-2.21,0l-9.83,9.444-9.82-9.444a1.619,1.619,0,0,0-2.22,0,1.461,1.461,0,0,0,0,2.124l9.83,9.444-9.83,9.444a1.461,1.461,0,0,0,0,2.124,1.62,1.62,0,0,0,2.22,0l9.82-9.444,9.83,9.444a1.612,1.612,0,0,0,1.11.44,1.571,1.571,0,0,0,1.1-.44,1.461,1.461,0,0,0,0-2.124Z" transform="translate(-1318 -259)"/>
</svg>
