<svg xmlns="http://www.w3.org/2000/svg" width="20" height="20" viewBox="0 0 20 20">
  <defs>
    <style>
      .cls-1 {
        fill: #72441b;
        fill-rule: evenodd;
      }
    </style>
  </defs>
  <path id="data.svg" class="cls-1" d="M617.5,756.125v-2.5a0.625,0.625,0,0,1,1.25,0v2.5A0.625,0.625,0,0,1,617.5,756.125Zm10.625,0.625a0.625,0.625,0,0,0,.625-0.625v-2.5a0.625,0.625,0,0,0-1.25,0v2.5A0.625,0.625,0,0,0,628.125,756.75ZM635,768a5,5,0,1,1-5-5A5,5,0,0,1,635,768Zm-1.25,0a3.75,3.75,0,1,0-3.75,3.75A3.754,3.754,0,0,0,633.75,768ZM620,760.5h-2.5V763H620v-2.5Zm-2.5,6.25H620v-2.5h-2.5v2.5Zm3.75-3.75h2.5v-2.5h-2.5V763Zm0,3.75h2.5v-2.5h-2.5v2.5Zm-5,1.125V759.25H630v2.5h1.25v-4.875A1.363,1.363,0,0,0,629.9,755.5h-0.521v0.625a1.25,1.25,0,0,1-2.5,0V755.5h-7.5v0.625a1.25,1.25,0,0,1-2.5,0V755.5h-0.521A1.364,1.364,0,0,0,615,756.875v11a1.366,1.366,0,0,0,1.354,1.375h7.4V768h-7.4A0.119,0.119,0,0,1,616.25,767.875ZM627.5,763v-2.5H625V763h2.5Zm4.375,5H630v-1.875a0.625,0.625,0,0,0-1.25,0v2.5a0.625,0.625,0,0,0,.625.625h2.5A0.625,0.625,0,0,0,631.875,768Z" transform="translate(-615 -753)"/>
</svg>
