<svg xmlns="http://www.w3.org/2000/svg" width="20" height="20" viewBox="0 0 20 20">
  <defs>
    <style>
      .cls-1 {
        fill: #f7ebb8;
        fill-rule: evenodd;
      }
    </style>
  </defs>
  <path id="home.svg" class="cls-1" d="M369.647,48.028l-3.028-3.258V41.007a1.149,1.149,0,1,0-2.291,0v1.3l-2.255-2.426a2.863,2.863,0,0,0-4.166,0l-7.572,8.146a1.3,1.3,0,0,0,0,1.743,1.089,1.089,0,0,0,1.62,0l7.572-8.147a0.642,0.642,0,0,1,.927,0l7.573,8.147a1.09,1.09,0,0,0,1.62,0A1.3,1.3,0,0,0,369.647,48.028Zm-9.258-4.065a0.536,0.536,0,0,0-.8,0l-6.661,7.163a0.631,0.631,0,0,0-.164.429V56.78A2.146,2.146,0,0,0,354.831,59h3.3V53.506h3.723V59h3.3a2.146,2.146,0,0,0,2.064-2.22V51.555a0.627,0.627,0,0,0-.165-0.429Z" transform="translate(-350 -39)"/>
</svg>
