<svg xmlns="http://www.w3.org/2000/svg" width="20" height="19.97" viewBox="0 0 20 19.97">
  <metadata><?xpacket begin="﻿" id="W5M0MpCehiHzreSzNTczkc9d"?>
<x:xmpmeta xmlns:x="adobe:ns:meta/" x:xmptk="Adobe XMP Core 5.6-c142 79.160924, 2017/07/13-01:06:39        ">
   <rdf:RDF xmlns:rdf="http://www.w3.org/1999/02/22-rdf-syntax-ns#">
      <rdf:Description rdf:about=""/>
   </rdf:RDF>
</x:xmpmeta>
                                                                                                    
                                                                                                    
                                                                                                    
                                                                                                    
                                                                                                    
                                                                                                    
                                                                                                    
                                                                                                    
                                                                                                    
                                                                                                    
                                                                                                    
                                                                                                    
                                                                                                    
                                                                                                    
                                                                                                    
                                                                                                    
                                                                                                    
                                                                                                    
                                                                                                    
                                                                                                    
                           
<?xpacket end="w"?></metadata>
<defs>
    <style>
      .cls-1 {
        fill-rule: evenodd;
      }
    </style>
  </defs>
  <path id="Forma_1" data-name="Forma 1" class="cls-1" d="M641.287,2691.58H622.713a0.707,0.707,0,0,0-.7.71,0.719,0.719,0,0,0,.7.71H641.3a0.707,0.707,0,0,0,.7-0.71A0.722,0.722,0,0,0,641.287,2691.58Zm-19.27-6.28L622,2688.68a0.7,0.7,0,0,0,.2.51,0.669,0.669,0,0,0,.492.21h0l3.294-.02a0.659,0.659,0,0,0,.492-0.2l11.375-11.59a0.739,0.739,0,0,0,0-1.02l-3.259-3.36a0.7,0.7,0,0,0-1,0l-2.275,2.34h0l-9.1,9.25A0.777,0.777,0,0,0,622.017,2685.3Zm12.088-10.57,2.292,2.34-1.29,1.31-2.292-2.33Zm-10.679,10.88,8.387-8.54,2.292,2.33-8.387,8.53-2.309.02Z" transform="translate(-622 -2673.03)"/>
</svg>
