<svg xmlns="http://www.w3.org/2000/svg" width="18.844" height="21.53" viewBox="0 0 18.844 21.53">
  <defs>
    <style>
      .cls-1 {
        fill-rule: evenodd;
      }
    </style>
  </defs>
  <path id="man.svg" class="cls-1" d="M438.333,5564.08h0.146a4.307,4.307,0,0,0,3.232-1.36c1.764-1.94,1.471-5.25,1.439-5.57a4.53,4.53,0,0,0-2.223-4.04,5.313,5.313,0,0,0-2.466-.63h-0.078a5.226,5.226,0,0,0-2.466.61,4.535,4.535,0,0,0-2.25,4.06c-0.032.32-.325,3.63,1.439,5.57A4.29,4.29,0,0,0,438.333,5564.08Zm-3.442-6.82c0-.01,0-0.02,0-0.03,0.152-3.2,2.484-3.54,3.484-3.54h0.055c1.237,0.03,3.341.52,3.483,3.54a0.046,0.046,0,0,0,.005.03c0,0.04.325,3.07-1.133,4.66a3.055,3.055,0,0,1-2.36.95h-0.046a3.047,3.047,0,0,1-2.356-.95C434.575,5560.33,434.886,5557.29,434.891,5557.26Zm12.934,12.32v-0.02c0-.03,0-0.07,0-0.11-0.027-.88-0.087-2.95-2.076-3.6-0.014-.01-0.032-0.01-0.046-0.02a13.472,13.472,0,0,1-3.8-1.68,0.632,0.632,0,0,0-.862.14,0.591,0.591,0,0,0,.152.84,14.23,14.23,0,0,0,4.184,1.86c1.068,0.37,1.187,1.48,1.219,2.5a0.81,0.81,0,0,0,0,.11,7.743,7.743,0,0,1-.1,1.37,18.766,18.766,0,0,1-16.166,0,7.555,7.555,0,0,1-.1-1.38c0-.03,0-0.07,0-0.11,0.032-1.01.151-2.12,1.219-2.49a14.511,14.511,0,0,0,4.184-1.86,0.593,0.593,0,0,0,.152-0.84,0.634,0.634,0,0,0-.862-0.15,12.9,12.9,0,0,1-3.8,1.69c-0.019,0-.032.01-0.046,0.01-1.989.66-2.049,2.73-2.076,3.61a0.81,0.81,0,0,1,0,.11v0.01a6.692,6.692,0,0,0,.234,2.02,0.617,0.617,0,0,0,.238.28,19.856,19.856,0,0,0,17.894,0,0.648,0.648,0,0,0,.238-0.28A6.941,6.941,0,0,0,447.825,5569.58Z" transform="translate(-429 -5552.47)"/>
</svg>
