<svg xmlns="http://www.w3.org/2000/svg" width="33" height="33" viewBox="0 0 33 33">
  <defs>
    <style>
      .cls-1 {
        fill: #dda759;
        fill-rule: evenodd;
      }
    </style>
  </defs>
  <path id="ins.svg" class="cls-1" d="M933.5,689.8a3.3,3.3,0,1,0-3.3-3.3A3.308,3.308,0,0,0,933.5,689.8Zm7.211-7.342v-3.18H940.3l-2.767.009,0.012,3.181ZM933.5,670A16.5,16.5,0,1,0,950,686.5,16.514,16.514,0,0,0,933.5,670Zm9.382,14.57v7.681a3.63,3.63,0,0,1-3.626,3.627H927.744a3.63,3.63,0,0,1-3.626-3.627V680.744a3.629,3.629,0,0,1,3.626-3.626h11.51a3.63,3.63,0,0,1,3.627,3.626v3.83ZM938.63,686.5a5.131,5.131,0,1,1-9.884-1.925h-2.8v7.681a1.8,1.8,0,0,0,1.8,1.8h11.51a1.8,1.8,0,0,0,1.8-1.8v-7.681h-2.8A5.078,5.078,0,0,1,938.63,686.5Z" transform="translate(-917 -670)"/>
</svg>
