<svg xmlns="http://www.w3.org/2000/svg" width="517" height="33" viewBox="0 0 517 33">
  <defs>
    <style>
      .cls-1 {
        fill: #633a16;
        fill-rule: evenodd;
      }
    </style>
  </defs>
  <path id="lookcRoom-line.svg" class="cls-1" d="M1340.09,478.956a3.031,3.031,0,0,1,1.76-1.862,0.44,0.44,0,0,1,.54.53,8.234,8.234,0,0,1-1.59,1.734,0.426,0.426,0,0,1-.71-0.4h0Zm-1.64-1.309a7.64,7.64,0,0,1,1.43-1.364c0.55-.424,1.05-0.977,1.64-1.343a0.43,0.43,0,0,1,.63.472c-0.29,1.323-2.26,1.8-3.14,2.657-0.28.273-.81-0.1-0.56-0.422h0Zm-1.15-.869a8.177,8.177,0,0,1,3.44-3.159,0.41,0.41,0,0,1,.5.637c-1.04,1.08-2.39,1.823-3.45,2.886a0.31,0.31,0,0,1-.49-0.364h0Zm-0.86-1.866a7.039,7.039,0,0,1,2-2.151,0.415,0.415,0,0,1,.57.559,18.634,18.634,0,0,1-1.95,2.061,0.394,0.394,0,0,1-.62-0.469h0Zm-1.51-1.922a5.244,5.244,0,0,1,2.43-2.424,0.45,0.45,0,0,1,.51.652c-0.6.838-1.48,1.43-2.1,2.253a0.484,0.484,0,0,1-.84-0.481h0Zm6.69-20.066a8.62,8.62,0,0,1,1.47,2c0.17,0.351-.31.8-0.59,0.449-0.52-.649-0.99-1.33-1.5-1.985-0.27-.346.33-0.791,0.62-0.463h0Zm-2.19.66a8.063,8.063,0,0,1,2.01,2.767,0.379,0.379,0,0,1-.63.365l-2.01-2.517c-0.34-.431.25-1.047,0.63-0.615h0Zm-1.38.645c0.51,0.554,1.03,1.085,1.49,1.681a2.57,2.57,0,0,1,.76,2.044,0.426,0.426,0,0,1-.7.18,13.82,13.82,0,0,1-.94-1.718c-0.38-.591-0.82-1.145-1.25-1.707-0.27-.364.33-0.811,0.64-0.48h0Zm-1.15,1.045c0.39,0.615.9,1.157,1.35,1.73a3.3,3.3,0,0,1,.98,1.735,0.468,0.468,0,0,1-.7.4,5.073,5.073,0,0,1-1.14-1.473,17.267,17.267,0,0,1-1.21-1.978,0.415,0.415,0,0,1,.72-0.409h0Zm-1.33,1.063c0.33,0.392.66,0.781,1,1.165a3.96,3.96,0,0,1,.92,1.273,0.472,0.472,0,0,1-.69.521,3.343,3.343,0,0,1-.94-0.977c-0.33-.43-0.67-0.856-1.01-1.281-0.39-.491.29-1.195,0.72-0.7h0Zm-122.28,23.021a8.234,8.234,0,0,1-1.59-1.734,0.44,0.44,0,0,1,.54-0.53,3.031,3.031,0,0,1,1.76,1.862,0.426,0.426,0,0,1-.71.4h0Zm1.79-1.289c-0.88-.861-2.85-1.334-3.14-2.657a0.43,0.43,0,0,1,.63-0.472c0.56,0.348,1.01.876,1.54,1.267a7.419,7.419,0,0,1,1.53,1.44c0.25,0.324-.28.695-0.56,0.422h0Zm1.22-.927c-1.07-1.063-2.41-1.806-3.45-2.886a0.41,0.41,0,0,1,.5-0.637,8.177,8.177,0,0,1,3.44,3.159,0.31,0.31,0,0,1-.49.364h0Zm0.73-1.761a19.721,19.721,0,0,1-1.96-2.061,0.42,0.42,0,0,1,.58-0.559,7.039,7.039,0,0,1,2,2.151,0.394,0.394,0,0,1-.62.469h0Zm1.29-1.91c-0.62-.823-1.5-1.415-2.1-2.253a0.45,0.45,0,0,1,.51-0.652,5.244,5.244,0,0,1,2.43,2.424,0.484,0.484,0,0,1-.84.481h0Zm-5.23-20.084c-0.51.655-.98,1.336-1.5,1.985-0.28.355-.76-0.1-0.59-0.449a8.62,8.62,0,0,1,1.47-2c0.29-.328.89,0.117,0.62,0.463h0Zm2.2,0.812q-1.005,1.258-2.01,2.517a0.379,0.379,0,0,1-.63-0.365,8.063,8.063,0,0,1,2.01-2.767c0.38-.432.97,0.184,0.63,0.615h0Zm1.39,0.51c-0.43.563-.85,1.124-1.25,1.707a15.9,15.9,0,0,1-.94,1.718,0.426,0.426,0,0,1-.7-0.18,2.4,2.4,0,0,1,.63-1.864,17.445,17.445,0,0,1,1.62-1.861c0.31-.331.91,0.116,0.64,0.48h0Zm1.22,0.974a17.577,17.577,0,0,1-1.06,1.79,5.731,5.731,0,0,1-1.28,1.661,0.468,0.468,0,0,1-.7-0.4,3.026,3.026,0,0,1,.89-1.625c0.48-.612,1.02-1.187,1.44-1.84a0.41,0.41,0,0,1,.71.409h0Zm1.34,1.355c-0.34.425-.68,0.852-1.01,1.281a3.343,3.343,0,0,1-.94.977,0.472,0.472,0,0,1-.69-0.521,3.314,3.314,0,0,1,.77-1.108c0.39-.439.77-0.882,1.15-1.33,0.43-.494,1.11.21,0.72,0.7h0Zm73.58,12.815a7.908,7.908,0,0,1-1.34-1.915c-0.16-.4.39-0.6,0.66-0.381a8.058,8.058,0,0,1,1.43,1.866c0.32,0.47-.42.852-0.75,0.43h0Zm1.19-.87a7.14,7.14,0,0,1-1.72-2.04,0.4,0.4,0,0,1,.63-0.48c0.63,0.584,1.15,1.254,1.73,1.887a0.45,0.45,0,0,1-.64.633h0Zm-33.49.44a8.058,8.058,0,0,1,1.43-1.866c0.27-.223.82-0.023,0.66,0.381a8.2,8.2,0,0,1-1.34,1.915c-0.33.422-1.07,0.04-.75-0.43h0Zm-1.08-1.073c0.58-.633,1.1-1.3,1.73-1.887a0.4,0.4,0,0,1,.63.48,7.14,7.14,0,0,1-1.72,2.04,0.45,0.45,0,0,1-.64-0.633h0Zm35.43-1.359c1.65,3.4-.99,4.51-3.98,3.14-4.31-1.973-3.29-5.887.3-7.821,6.04-3.25,11.25,2.492,10.97,8.3-0.33,6.606-7.43,8.735-12.86,7.125-5.34-1.581-12.25-7.1-12.83-12.943-0.6-6.059,2.74-10.818,8.4-13.129,15.51-6.324,29.57,1.614,42.96,8.823,9,4.843,18.64,9.745,29.18,9.4a26.718,26.718,0,0,0,15.48-6.113c2.85-2.287,4.77-5.479,4.21-9.159a5.715,5.715,0,0,0-4.15-4.337,5.3,5.3,0,0,0-4.81,1.321q-2.73,1.8,1.04,2.826c-0.83-.632.23-1.9,1.1-1.4,5.64,3.276-1.84,8.668-5.02,4.083-1.76-2.548-.66-4.939,1.37-6.985,2.47-2.486,6.12-2.465,9.06-.935,3.05,1.592,3.94,5.477,3.53,8.539-0.52,3.881-3.92,6.933-6.95,9.094-7.42,5.285-16.48,6.062-25.17,3.994-17.45-4.153-31.29-19.457-49.81-19.385-7.2.029-17.49,2.309-18.47,10.733-0.92,7.9,11.14,17.549,18.68,13.509,7.22-3.869,2.28-16.268-6.04-11.813-2.59,1.388-2.03,3.562.04,4.926,1.64,1.08,3.75.983,2.8-1.4a0.532,0.532,0,0,1,.97-0.4h0Zm26.58-8.868c5.27,2.567,9.82,6.452,10.86,12.344,0.68,3.853-2.4,9.865-7.19,7.085-2.36-1.374-6.44-5.358-2.66-7.564,1.61-.943,5.86.365,3.84,2.452a0.646,0.646,0,0,1-.99-0.125c-0.85-1.315-3.4-1.259-2.36.97a7.48,7.48,0,0,0,3.66,3.047c3.08,1.186,4.2-2.715,4.28-4.7,0.23-6.066-5.48-9.746-9.8-12.9a0.354,0.354,0,0,1,.36-0.61h0Zm0.62-.677c7.84,3.793,15.88,6.307,24.71,4.949a13.191,13.191,0,0,0,7.27-3.864c2.57-2.572-.85-5.9-3.77-5.409-2.11.351-1.68,3.18,0.78,2.633,0.59-.132,1.2.652,0.65,1.094-2.58,2.053-5.12-.3-4.24-3.155,1.24-4.015,7.99-2.034,9.03,1.11,1.6,4.884-5.42,8.313-9.32,9.026a33.706,33.706,0,0,1-25.18-5.75c-0.41-.3-0.84-0.822-0.37-0.595Zm20.73,23.472c-2.83-.9-5.43-2.146-6.96-4.729-0.83-1.391-2.57-4.8-1.09-6.221a0.609,0.609,0,0,1,1.03.417,9.551,9.551,0,0,0,1.3,5.619c1.21,2.352,3.94,2.909,5.97,4.324a0.324,0.324,0,0,1-.25.59h0Zm-0.04-.206c-0.48-1.8-.5-3.682-1.06-5.478-0.82-2.668-3.72-2.948-5.99-3.817-0.98-.37-0.58-1.907.44-1.56,2.29,0.782,4.5,1.379,5.82,3.529,1.27,2.059,1.45,4.878,1.55,7.224a0.389,0.389,0,0,1-.76.1h0Zm-48.89-13.2a0.725,0.725,0,0,0-.74-0.305,1.161,1.161,0,0,0-.34.2c-0.09.077-.18,0.149-0.27,0.215-0.24.1-.26,0.107-0.04,0.009a9.208,9.208,0,0,0-.63.959,1.646,1.646,0,0,1-.61,1,0.812,0.812,0,0,1-.93-0.116c-0.57-.5-0.16-1.319.14-1.85a4.7,4.7,0,0,1,.56-0.743,2.327,2.327,0,0,1,.38-0.316c0.15-.1.16-0.111,0.03-0.023a0.792,0.792,0,0,1,.29-0.282c1.08-.759,2.64-0.673,3.14.692,0.22,0.593-.57.9-0.98,0.561h0Zm50.69-15.088c-4.1.9-10.13,1.472-9.71,6.933,0.06,0.882-1.33.872-1.4,0-0.48-5.706,6.18-8.034,11.02-7.627a0.354,0.354,0,0,1,.09.694h0Zm0.57-.046a17.363,17.363,0,0,1-4.42,6.044,9.316,9.316,0,0,1-6.29,2.328,0.659,0.659,0,0,1,0-1.317,8.642,8.642,0,0,0,5.77-2.258,61.785,61.785,0,0,0,4.35-5.137,0.354,0.354,0,0,1,.59.34h0Zm-59.05,6.094c4.14-4.527,11.15-3.835,16.64-2.717,6.11,1.244,13.41,3.944,17.82,8.446a0.507,0.507,0,0,1-.72.713c-4.01-4.085-9.91-6.323-15.35-7.821-5.5-1.512-13.61-2.808-17.99,1.775a0.282,0.282,0,0,1-.4-0.4h0Zm-25.89,8.914c-1.49,3.747,5.3,1.516,4.62-1.672-0.64-3.054-6.14-3.385-8.16-2.326-3.21,1.683-3.78,6.491-2.31,9.333,5.1,9.886,19.03-.538,21.15-7.487,2.81-9.19-8.77-13.038-15.69-13.676-8.42-.779-15.65,1.926-23.03,5.664-15.7,7.955-33.33,20.513-51.37,11.5-5.71-2.85-14.73-11.4-8.36-18,2-2.079,5.22-3.479,8.12-2.248,2.32,0.983,5.85,3.8,4.98,6.742-2.19,7.37-12.12,1.4-5.93-2.192,0.87-.5,1.93.767,1.1,1.4,0.73-.508,1.45-1.017,2.18-1.527a6.728,6.728,0,0,0-2.55-2.264c-2.61-1.568-5.45.2-6.85,2.21-2.41,3.442.19,7.6,2.61,10.114,4.11,4.254,10.55,6.507,16.38,6.929,10.35,0.75,20.41-4.716,29.18-9.4,13.43-7.177,27.42-15.158,42.96-8.823,5.66,2.311,9,7.07,8.4,13.129-0.6,6.077-7.51,11.028-12.83,12.943-5.39,1.942-12.55-.777-12.86-7.125-0.3-6.233,4.84-11,10.97-8.3,4.14,1.825,4.09,5.736.3,7.821-3,1.65-5.54.079-3.98-3.14a0.532,0.532,0,0,1,.97.4h0ZM1233,458.733c-4.25,3.1-8.39,5.828-9.61,11.212-1.11,4.919,2.76,8.479,6.95,4.4,2.03-1.968-.12-4.28-1.56-2.032a0.646,0.646,0,0,1-.99.125c-2.04-2.115,2.09-3.151,3.63-2.54,4.38,1.738-.34,6.427-2.45,7.652-4.81,2.792-7.62-3.12-7.22-6.885,0.63-5.94,5.78-10.053,10.89-12.544a0.354,0.354,0,0,1,.36.61h0Zm-0.91-.653a33.7,33.7,0,0,1-24.17,5.9c-4.09-.607-12.08-3.845-10.33-9.175,1.12-3.379,7.21-4.786,8.94-1.308a2.688,2.688,0,0,1-4.15,3.353c-0.55-.442.06-1.226,0.65-1.094,1.58,0.352,2.6-.3,1.83-1.839-1.36-2.743-6.27.865-5.86,2.943,0.61,3.094,5.61,5.027,8.31,5.536,8.67,1.631,17.09-1.212,24.73-4.91,0.47-.227.45,0.3,0.05,0.595h0Zm-21.05,22.248c2.08-1.449,4.63-1.994,5.97-4.324a9.169,9.169,0,0,0,1.3-5.619,0.609,0.609,0,0,1,1.03-.417c1.51,1.454-.31,4.788-1.09,6.221-1.41,2.606-4.21,3.852-6.96,4.729a0.324,0.324,0,0,1-.25-0.59h0Zm-0.48.282a16.759,16.759,0,0,1,1.56-7.224c1.18-2.174,3.62-2.78,5.82-3.529,1.02-.347,1.41,1.19.44,1.56-1.98.756-4.41,1.008-5.62,2.94-1.16,1.85-.89,4.316-1.43,6.355a0.4,0.4,0,0,1-.77-0.1h0Zm48.68-13.657a1.98,1.98,0,0,1,3.14-.692c0.01,0,.49.429,0.2,0.221a3.024,3.024,0,0,1,.4.293,4.707,4.707,0,0,1,.66.85c0.32,0.514.7,1.369,0.14,1.85a0.812,0.812,0,0,1-.93.116,1.273,1.273,0,0,1-.55-0.882,5.109,5.109,0,0,0-.61-0.957c-0.12-.149-0.1-0.167.07-0.051a0.828,0.828,0,0,1-.35-0.2,2.19,2.19,0,0,0-.4-0.266,0.672,0.672,0,0,0-.79.282c-0.41.337-1.2,0.032-.98-0.561h0Zm-49.62-15.221c4.84-.407,11.5,1.921,11.02,7.627-0.07.872-1.46,0.882-1.4,0,0.43-5.461-5.61-6.035-9.71-6.933a0.354,0.354,0,0,1,.09-0.694h0Zm-0.07.308c1.36,1.554,2.57,3.221,3.96,4.75a8.447,8.447,0,0,0,6.16,2.645,0.659,0.659,0,0,1,0,1.317,9.814,9.814,0,0,1-5.9-1.994,15.954,15.954,0,0,1-4.81-6.378,0.354,0.354,0,0,1,.59-0.34h0Zm58.06,6.83c-4.45-4.654-12.42-3.175-17.99-1.775-5.42,1.364-11.4,3.793-15.35,7.821a0.507,0.507,0,0,1-.72-0.713c4.5-4.591,11.66-7.01,17.82-8.446,5.41-1.262,12.57-1.729,16.64,2.717a0.282,0.282,0,0,1-.4.4h0Zm-97.84-4.216c-6.6-.169-13.26.16-19.87,0.188-7.71.033-111.58-.222-119.3,0.205-0.25-1.789-2.75-2.541-4.34-2.373a15.692,15.692,0,0,0-7.09,2.527,0.45,0.45,0,0,0-.04.689,0.724,0.724,0,0,0,.49.593c1.94,0.681,3.82,2.41,5.94,2.488,1.85,0.067,2.8-1.115,3.94-2.452a0.457,0.457,0,0,0,.05-0.52l0.09,0c0.03,0.042.06,0.085,0.09,0.125a0.5,0.5,0,0,0,.76-0.08c7.75,0.437,111.66.192,119.41,0.222,6.61,0.025,13.27.358,19.87,0.189A0.9,0.9,0,0,0,1169.77,454.654Zm-147.21,1.612c-0.55-.288-1.1-0.574-1.66-0.828,0.56-.215,1.12-0.433,1.68-0.634C1022.57,455.291,1022.55,455.778,1022.56,456.266Zm1.87,0.9c-0.41-.171-0.81-0.361-1.2-0.561a0.357,0.357,0,0,0,.02-0.107c0.01-.642.02-1.284,0-1.925,0.42-.135.85-0.253,1.28-0.347a0.329,0.329,0,0,0-.18.281C1024.32,455.4,1024.4,456.281,1024.43,457.171Zm3.63-.877c0.01-.128.04-0.258,0.04-0.386,0.2,0.016.41,0.024,0.61,0.039A4.6,4.6,0,0,0,1028.06,456.294Zm-0.03-1.085a4.361,4.361,0,0,0-.17-0.791,0.348,0.348,0,0,0-.67.188,5.653,5.653,0,0,1,.05,2.09,0.435,0.435,0,0,0,0,.161,2.514,2.514,0,0,1-2.19.544,0.324,0.324,0,0,0,.07-0.2c0.01-.9-0.07-1.789-0.12-2.687a0.316,0.316,0,0,0-.32-0.315c0.32-.065.66-0.127,1.01-0.173a0.184,0.184,0,0,0-.04.1c-0.16.953-.16,1.911-0.26,2.873-0.04.472,0.68,0.464,0.73,0,0.1-.928.12-1.856,0.15-2.787a0.262,0.262,0,0,0-.11-0.24,4.066,4.066,0,0,1,1.89.229,2.153,2.153,0,0,1,1.02.94C1028.72,455.166,1028.38,455.182,1028.03,455.209Zm356.73-.311c6.62-.159,13.3.153,19.93,0.18,7.74,0.031,111.9-.212,119.65.194,0.24-1.7,2.75-2.414,4.35-2.255a16.345,16.345,0,0,1,7.11,2.4,0.415,0.415,0,0,1,.04.655,0.7,0.7,0,0,1-.49.563c-1.94.649-3.84,2.291-5.96,2.365-1.85.064-2.81-1.059-3.95-2.331a0.4,0.4,0,0,1-.05-0.494c-0.03,0-.06,0-0.09,0a0.958,0.958,0,0,1-.1.117,0.5,0.5,0,0,1-.75-0.075c-7.78.416-111.99,0.183-119.76,0.211-6.63.024-13.31,0.339-19.93,0.179A0.858,0.858,0,1,1,1384.76,454.9Zm147.63,1.533c0.56-.273,1.11-0.545,1.68-0.787-0.57-.2-1.13-0.412-1.69-0.6C1532.39,455.5,1532.4,455.968,1532.39,456.431Zm-1.86.861c0.4-.164.8-0.343,1.2-0.533a0.183,0.183,0,0,1-.03-0.1c-0.01-.609-0.02-1.22.01-1.829-0.42-.129-0.85-0.24-1.29-0.33a0.3,0.3,0,0,1,.18.267C1530.64,455.612,1530.55,456.445,1530.53,457.292Zm-3.65-.834c-0.01-.122-0.03-0.245-0.03-0.367-0.21.015-.42,0.023-0.62,0.037A4.126,4.126,0,0,1,1526.88,456.458Zm0.03-1.032a3.938,3.938,0,0,1,.17-0.751,0.347,0.347,0,0,1,.67.178,5.527,5.527,0,0,0-.05,1.986,0.393,0.393,0,0,1,0,.153,2.628,2.628,0,0,0,2.2.518,0.3,0.3,0,0,1-.07-0.192c-0.01-.856.07-1.7,0.12-2.554a0.309,0.309,0,0,1,.32-0.3c-0.32-.062-0.66-0.122-1.01-0.165a0.172,0.172,0,0,1,.04.1c0.16,0.906.16,1.817,0.26,2.73,0.04,0.45-.68.442-0.73,0-0.1-.882-0.12-1.763-0.16-2.649a0.277,0.277,0,0,1,.12-0.228,4.345,4.345,0,0,0-1.9.218,2.116,2.116,0,0,0-1.02.894C1526.22,455.386,1526.57,455.4,1526.91,455.426Z" transform="translate(-1019 -448)"/>
</svg>
