<svg xmlns="http://www.w3.org/2000/svg" width="20" height="18" viewBox="0 0 20 18">
  <defs>
    <style>
      .cls-1 {
        fill: #f7eab7;
        fill-rule: evenodd;
      }
    </style>
  </defs>
  <path id="phone.svg" class="cls-1" d="M1180.89,55.505a1.683,1.683,0,0,1-.07.388,15.772,15.772,0,0,1-1.22,1.983c-0.52.849-4.87-.98-4.31-2.113a11.654,11.654,0,0,0,1.1-2.04,0.915,0.915,0,0,0-.96-0.782c-1.29-.108-2.94-0.01-4.32,0h-0.22c-1.38-.009-3.02-0.107-4.32,0a0.914,0.914,0,0,0-.96.782,11.654,11.654,0,0,0,1.1,2.04c0.56,1.133-3.79,2.961-4.31,2.113a15.729,15.729,0,0,1-1.22-1.983,1.689,1.689,0,0,1-.07-0.388c-0.64-2.958,1.82-5.976,5.52-6.285,1.42-.119,2.84-0.187,4.26-0.212V49l0.11,0,0.11,0v0.008c1.42,0.026,2.84.093,4.26,0.212C1179.07,49.529,1181.53,52.548,1180.89,55.505Zm-2.54,10.206a1.122,1.122,0,0,1-1,1.289h-12.7a1.122,1.122,0,0,1-1-1.289l0.37-6.47A6.353,6.353,0,0,0,1167.71,57a1.879,1.879,0,0,0,.1-1.833c-0.07-.144-0.21-0.369-0.36-0.62h0a0.022,0.022,0,0,1-.01-0.019h6.92a0.026,0.026,0,0,0-.01.026,0.984,0.984,0,0,0-.1.509c-0.02.036-.05,0.083-0.07,0.113a1.892,1.892,0,0,0,.11,1.825,6.349,6.349,0,0,0,3.69,2.242ZM1173.43,59a3.334,3.334,0,0,0-4.83,0,3.64,3.64,0,0,0,0,5.006,3.33,3.33,0,0,0,4.43.352l-0.84-.865a2.189,2.189,0,0,1-2.77-.335,2.4,2.4,0,0,1,0-3.31,2.2,2.2,0,0,1,3.19,0,2.4,2.4,0,0,1,.33,2.864l0.84,0.867A3.641,3.641,0,0,0,1173.43,59Z" transform="translate(-1161 -49)"/>
</svg>
