<svg xmlns="http://www.w3.org/2000/svg" width="12" height="12" viewBox="0 0 12 12">
  <defs>
    <style>
      .cls-1 {
        fill: #dda759;
        fill-rule: evenodd;
      }
    </style>
  </defs>
  <path id="stars2.svg" class="cls-1" d="M537.744,4408.44a0.923,0.923,0,0,0,.218-0.92,0.873,0.873,0,0,0-.7-0.62l-2.908-.44a0.391,0.391,0,0,1-.286-0.21l-1.3-2.75a0.847,0.847,0,0,0-1.545,0l-1.3,2.75a0.393,0.393,0,0,1-.286.21l-2.908.44a0.874,0.874,0,0,0-.7.62,0.923,0.923,0,0,0,.218.92l2.1,2.13a0.433,0.433,0,0,1,.11.36l-0.5,3.01a0.9,0.9,0,0,0,.188.73,0.839,0.839,0,0,0,1.062.22l2.6-1.42a0.371,0.371,0,0,1,.354,0l2.6,1.42a0.822,0.822,0,0,0,.4.11,0.843,0.843,0,0,0,.661-0.33,0.9,0.9,0,0,0,.188-0.73l-0.5-3.01a0.433,0.433,0,0,1,.11-0.36Z" transform="translate(-526 -4403)"/>
</svg>
