<svg xmlns="http://www.w3.org/2000/svg" width="39.94" height="39" viewBox="0 0 39.94 39">
  <defs>
    <style>
      .cls-1 {
        fill: #89592f;
        fill-rule: evenodd;
      }
    </style>
  </defs>
  <path id="stars.svg" class="cls-1" d="M1129.12,1191.67a2.96,2.96,0,0,0,.72-3,2.854,2.854,0,0,0-2.31-1.98l-9.68-1.43a1.264,1.264,0,0,1-.95-0.71l-4.33-8.93a2.849,2.849,0,0,0-5.14,0l-4.33,8.93a1.264,1.264,0,0,1-.95.71l-9.68,1.43a2.862,2.862,0,0,0-2.32,1.99,2.952,2.952,0,0,0,.73,2.99l7,6.95a1.3,1.3,0,0,1,.37,1.14l-1.65,9.81a2.876,2.876,0,0,0,4.15,3.08l8.66-4.64a1.293,1.293,0,0,1,1.18,0l8.65,4.64a2.88,2.88,0,0,0,4.16-3.08l-1.65-9.81a1.317,1.317,0,0,1,.36-1.14Z" transform="translate(-1090.03 -1174)"/>
</svg>
