<svg xmlns="http://www.w3.org/2000/svg" width="74.969" height="55" viewBox="0 0 74.969 55">
  <defs>
    <style>
      .cls-1 {
        fill: #fff;
        fill-rule: evenodd;
      }
    </style>
  </defs>
  <path id="zabota1.svg" class="cls-1" d="M458.5,1013.24a6.88,6.88,0,1,0,6.849,6.88A6.873,6.873,0,0,0,458.5,1013.24Zm36.7-24.029a47.74,47.74,0,0,0-73.405,0,3.443,3.443,0,0,0,.42,4.842,3.416,3.416,0,0,0,4.825-.419,40.907,40.907,0,0,1,62.915,0A3.43,3.43,0,1,0,495.2,989.211Zm-36.7-3.462a34.144,34.144,0,0,0-26.215,12.291,3.43,3.43,0,1,0,5.245,4.42,27.273,27.273,0,0,1,41.943,0,3.415,3.415,0,0,0,2.623,1.23,3.354,3.354,0,0,0,2.2-.81,3.441,3.441,0,0,0,.419-4.84A34.144,34.144,0,0,0,458.5,985.749Zm0,13.749a20.5,20.5,0,0,0-15.731,7.372,3.43,3.43,0,1,0,5.246,4.42,13.631,13.631,0,0,1,20.969,0,3.407,3.407,0,0,0,4.826.42,3.444,3.444,0,0,0,.421-4.84A20.5,20.5,0,0,0,458.5,999.5Z" transform="translate(-421 -972)"/>
</svg>
