<svg xmlns="http://www.w3.org/2000/svg" width="78" height="76" viewBox="0 0 78 76">
  <defs>
    <style>
      .cls-1 {
        fill: #fff;
        fill-rule: evenodd;
      }
    </style>
  </defs>
  <path id="zabota4.svg" class="cls-1" d="M1101.54,978.311a2.432,2.432,0,0,0-1.92-1.014l-7.06-.187,0.81-2.57a2.428,2.428,0,0,0-1.61-3.042l-43.29-13.388a2.439,2.439,0,0,0-3.05,1.6l-6.73,21.545a2.427,2.427,0,0,0,1.61,3.041l8.77,2.712-1.45,4.641a2.424,2.424,0,0,0,1.61,3.04l3.98,1.233-9.89,15.919a11.568,11.568,0,0,0-4.68-.98h-12.2a2.435,2.435,0,0,0-2.44,2.43v18.28a2.435,2.435,0,0,0,2.44,2.43h12.2a11.615,11.615,0,0,0,11.63-11.57,11.5,11.5,0,0,0-3-7.74,1.274,1.274,0,0,0,.13-0.19l10.62-17.09,5.19,1.6a2.449,2.449,0,0,0,3.06-1.6l1.44-4.641,15.88,4.909a2.382,2.382,0,0,0,.72.11,2.481,2.481,0,0,0,1.14-.28,2.422,2.422,0,0,0,1.19-1.429l0.8-2.57,5.93,3.828a2.44,2.44,0,0,0,1.33.392,2.4,2.4,0,0,0,.82-0.145,2.45,2.45,0,0,0,1.51-1.564l4.86-15.578A2.4,2.4,0,0,0,1101.54,978.311Zm-72.66,37.409h3.26v13.42h-3.26v-13.42Zm9.76,13.42h-1.62v-13.42h1.62A6.71,6.71,0,1,1,1038.64,1029.14Zm23.69-35.487-9.32-2.884,0.72-2.321,9.32,2.885Zm20.37-1.331-38.62-11.947,5.28-16.9,38.62,11.947-1.03,3.314h0l-3.21,10.275v0Zm10.62-.8-4.37-2.826,2.11-6.762,5.21,0.138Zm-43.49-16.4a2.493,2.493,0,0,0-1.73.711,2.44,2.44,0,1,0,3.46,0A2.493,2.493,0,0,0,1049.83,975.12Z" transform="translate(-1024 -958)"/>
</svg>
