<svg xmlns="http://www.w3.org/2000/svg" width="55.03" height="72" viewBox="0 0 55.03 72">
  <defs>
    <style>
      .cls-1 {
        fill: #fff;
        fill-rule: evenodd;
      }
    </style>
  </defs>
  <path id="zabota5.svg" class="cls-1" d="M1268.8,1002.99a3.245,3.245,0,0,0-2.3-1.24h-15.91a3.208,3.208,0,0,0-2.3,1.24,3.293,3.293,0,0,0-.72,2.53l2.66,18.78a3.081,3.081,0,0,0,3.01,2.66h10.6a3.038,3.038,0,0,0,3.01-2.62l2.66-18.82A3.287,3.287,0,0,0,1268.8,1002.99Zm-24.04,5.96a3.025,3.025,0,0,0-2.95.28l-7.13,4.95a3.072,3.072,0,0,0-.77,4.26l6.15,8.98a3.02,3.02,0,0,0,3.98.94l2.66-1.5a3.069,3.069,0,0,0,1.53-3.09l-1.68-12.43A3.048,3.048,0,0,0,1244.76,1008.95Zm-9.83,14.85a1.425,1.425,0,0,0-1.46-.54,1.449,1.449,0,0,0-1.1,1.13l-1.37,6.87a1.47,1.47,0,0,0,.58,1.47,1.444,1.444,0,0,0,1.57.07l4.49-2.69a1.456,1.456,0,0,0,.68-0.97,1.476,1.476,0,0,0-.26-1.15Zm47.38-9.62-7.13-4.95a3.022,3.022,0,0,0-2.95-.28,3.068,3.068,0,0,0-1.79,2.39l-1.68,12.43a3.069,3.069,0,0,0,1.53,3.09l2.66,1.5a3.034,3.034,0,0,0,3.99-.94l6.15-8.98A3.083,3.083,0,0,0,1282.31,1014.18Zm3.69,17.08-1.38-6.87a1.451,1.451,0,0,0-1.09-1.13,1.423,1.423,0,0,0-1.47.54l-3.12,4.18a1.49,1.49,0,0,0-.26,1.16,1.459,1.459,0,0,0,.68.96l4.49,2.69a1.424,1.424,0,0,0,1.57-.06A1.47,1.47,0,0,0,1286,1031.26Zm-27.23-32.525c2.24,0,21.88-.194,21.88-6.947,0-3.009-3.9-4.716-8.43-5.682,0.18-.291.34-0.592,0.5-0.9l3.1-.28a5,5,0,0,0,4.85-4.41l0.62-5.36a4.418,4.418,0,0,0-1.23-3.647,4.524,4.524,0,0,0-3.74-1.21h-1.42l0.31-4.405v-0.109a0.6,0.6,0,0,0,.01-0.133c0-2.561-7.37-4.647-16.45-4.647s-16.45,2.07-16.45,4.631v0.17l0.99,13.935a14.438,14.438,0,0,0,2,6.363c-4.52.968-8.43,2.674-8.43,5.682C1236.88,998.541,1256.53,998.735,1258.77,998.735Zm15.45-18.81,0.48-6.461h2.08a1.684,1.684,0,0,1,1.65,1.738l-0.65,5.179a1.807,1.807,0,0,1-2.02,1.533c-0.47.019-1.86,0.129-1.86,0.129A11.257,11.257,0,0,0,1274.22,979.925Zm-15.45-15.546c5.95,0,10.78,1.018,10.78,2.275s-4.83,2.278-10.78,2.278-10.79-1.018-10.79-2.278S1252.81,964.379,1258.77,964.379Zm-10.6,24.808a13.805,13.805,0,0,0,9.29,3.165h2.62a13.823,13.823,0,0,0,9.29-3.165c3.92,0.647,6.45,1.733,7.27,2.437-1.41,1.217-7.88,3.156-17.87,3.156s-16.46-1.973-17.87-3.189C1241.72,990.885,1244.24,989.834,1248.17,989.187Z" transform="translate(-1230.97 -961)"/>
</svg>
