<svg xmlns="http://www.w3.org/2000/svg" width="64" height="64" viewBox="0 0 64 64">
  <defs>
    <style>
      .cls-1 {
        fill: #fff;
        fill-rule: evenodd;
      }
    </style>
  </defs>
  <path id="zabota6.1.svg" class="cls-1" d="M1489.78,1024.26a1,1,0,0,1-.81,1.63h-3.08v3.08a1,1,0,0,1-1.63.81,0.928,0.928,0,0,1-1.2,0,1.009,1.009,0,0,1-.61.22,1.026,1.026,0,0,1-1.02-1.03v-3.08h-10.16a0.994,0.994,0,0,1,.04,1.27,1.068,1.068,0,0,1,.21.61,0.962,0.962,0,0,0,0,1.2,1.026,1.026,0,0,1-1.02,1.03h-16.79a1.048,1.048,0,0,1-.66-0.24,10.228,10.228,0,0,1-.12-2.66l12.69-14.94a5.139,5.139,0,0,0,.81-2.17,5.042,5.042,0,0,0-1.94-3.47,6.284,6.284,0,0,0-2.28-1,6.125,6.125,0,0,0-5.06,6,1.02,1.02,0,0,1-1.02,1.03,1.033,1.033,0,0,1-.61-0.22,0.928,0.928,0,0,1-1.2,0,1.009,1.009,0,0,1-.61.22,1.026,1.026,0,0,1-1.02-1.03,8.476,8.476,0,0,1,.06-0.87,1.138,1.138,0,0,1-.06-0.33,8.264,8.264,0,0,1,1.54-4.8,8.528,8.528,0,0,1,1.55-1.62,8.218,8.218,0,0,1,7.14-2.96,8.134,8.134,0,0,1,5.18,1.5,7.114,7.114,0,0,1,2.79,6.31,8.28,8.28,0,0,1,0,1.22,7.105,7.105,0,0,1-1.17,4.58c-0.03.03-.05,0.06-0.08,0.09l-9.24,10.89h6.93a1.01,1.01,0,0,1-.09-1.25l0.02-.03a1.021,1.021,0,0,1-.02-1.18l14.37-20.53a0.989,0.989,0,0,1,.64-0.38l0.57-.82a0.995,0.995,0,0,1,1.45-.22,1,1,0,0,1,.6-0.22,1.024,1.024,0,0,1,1.02,1.02v19.51h3.08a1.026,1.026,0,0,1,1.03,1.02,1.009,1.009,0,0,1-.22.61A0.928,0.928,0,0,1,1489.78,1024.26Zm-8.35-13.21-7.27,10.38h7.27v-10.38Zm-23.12-12.744a3.065,3.065,0,0,1-2.76.822,3.162,3.162,0,0,1-1.23.006,3.05,3.05,0,0,1-3.61-3.623,3.13,3.13,0,0,1-.03-0.967l-4.95-4.948a1.588,1.588,0,0,1,.97-2.9,0.992,0.992,0,0,1,.24-0.938,1.009,1.009,0,0,1,1.34-.094,1.019,1.019,0,0,1,1.32.069l4.98,4.979a3.155,3.155,0,0,1,.94.028,3.232,3.232,0,0,1,.95-0.028l10.79-10.786a1.526,1.526,0,0,1,2.74,1.33,1,1,0,0,1,0,1.209,1.016,1.016,0,0,1-.08,1.328l-10.78,10.774A7.815,7.815,0,0,1,1458.31,998.306Zm31.04-6.232-5.81,5.805a0.95,0.95,0,0,1-.37.232,0.85,0.85,0,0,1-.12.024,1.04,1.04,0,0,1-.23.045h-0.06a0.956,0.956,0,0,1-.22-0.052q-0.06-.012-0.12-0.03a1,1,0,0,1-.2-0.146,0.955,0.955,0,0,1-.26.159,0.85,0.85,0,0,1-.12.024,1.04,1.04,0,0,1-.23.045h-0.06a1.1,1.1,0,0,1-.22-0.052q-0.06-.012-0.12-0.03a1,1,0,0,1-.2-0.146,1.077,1.077,0,0,1-.25.159,0.988,0.988,0,0,1-.13.024,0.938,0.938,0,0,1-.23.045h-0.06a1.007,1.007,0,0,1-.21-0.052,0.964,0.964,0,0,1-.13-0.03,1.064,1.064,0,0,1-.4-0.295l-5.73-5.729a1.589,1.589,0,0,1,.97-2.9,0.991,0.991,0,0,1,.24-0.937,1.009,1.009,0,0,1,1.34-.094,1.019,1.019,0,0,1,1.32.068l0.52,0.522a25.614,25.614,0,0,0-21.11-18.016v2.834a1.019,1.019,0,0,1-1.02,1.026,1.044,1.044,0,0,1-.61-0.218,0.935,0.935,0,0,1-1.2,0,1.005,1.005,0,0,1-1.63-.808v-2.782a25.571,25.571,0,0,0-21.98,21.922h3.86a1.027,1.027,0,0,1,1.03,1.026,0.939,0.939,0,0,0,0,1.208,0.938,0.938,0,0,0,0,1.207,1.028,1.028,0,0,1-1.03,1.027h-3.8a25.576,25.576,0,0,0,24.39,22.2h0a1.036,1.036,0,0,1,.99,1.07,1.023,1.023,0,0,1-.22.56,0.985,0.985,0,0,1,.22.65,1.023,1.023,0,0,1-.22.56,0.976,0.976,0,0,1,.22.64,1.018,1.018,0,0,1-1.02.99h-0.04c-0.28-.01-0.54-0.05-0.82-0.07a1.039,1.039,0,0,1-.35.07h-0.04c-0.27-.01-0.54-0.05-0.81-0.07a1.048,1.048,0,0,1-.36.07h-0.04a27.692,27.692,0,0,1-26.66-27.619c0-.026-0.01-0.047-0.01-0.073s0.01-.047.01-0.073c0-.183.03-0.36,0.03-0.542s-0.03-.344-0.03-0.519c0-.026-0.01-0.048-0.01-0.073s0.01-.047.01-0.073a29.893,29.893,0,0,1,28.84-28.834c0.02,0,.05-0.014.07-0.014a0.572,0.572,0,0,1,.07.014c0.19,0,.37.024,0.55,0.028s0.34-.028.52-0.028a0.572,0.572,0,0,1,.07-0.014c0.02,0,.05.013,0.07,0.014a27.652,27.652,0,0,1,27.49,25.195l3-3a1.525,1.525,0,0,1,2.73,1.344,1,1,0,0,1,0,1.209A1.021,1.021,0,0,1,1489.35,992.074Z" transform="translate(-1426 -966)"/>
</svg>
