<svg xmlns="http://www.w3.org/2000/svg" width="74" height="65.969" viewBox="0 0 74 65.969">
  <defs>
    <style>
      .cls-1 {
        fill: #fff;
        fill-rule: evenodd;
      }
    </style>
  </defs>
  <path id="zabota3.svg" class="cls-1" d="M849.111,996.957c0.049-.785.1-1.572,0.2-2.367a46.681,46.681,0,0,1,1.024-5.617c0.257-.918.534-1.825,0.826-2.711,0.372-.865.737-1.726,1.1-2.566a22.069,22.069,0,0,1,2.842-4.458c0.262-.33.521-0.652,0.773-0.973,0.289-.287.578-0.565,0.858-0.843a21.221,21.221,0,0,1,1.686-1.519,22.345,22.345,0,0,1,3.26-2.185,18.91,18.91,0,0,1,2.673-1.327c1.54-.615,2.415-0.925,2.415-0.925s-0.745.587-2.049,1.54c-0.673.436-1.385,1.125-2.236,1.829a34.246,34.246,0,0,0-2.639,2.56c-0.476.473-.846,1.065-1.3,1.611-0.22.278-.444,0.558-0.676,0.843-0.187.314-.381,0.629-0.578,0.95a26.73,26.73,0,0,0-2.125,4.164q-0.4,1.157-.819,2.344c-0.189.822-.4,1.653-0.629,2.479A44.455,44.455,0,0,0,852.9,995c-0.1.648-.151,1.3-0.211,1.956,14.273,0,25.32.012,40.779,0.012,0.053-.673.081-1.355,0.081-2.039,0-12.923-9.488-23.567-21.694-24.977a4,4,0,0,0-2.752-6.939,4.03,4.03,0,0,0-4.047,4.015,3.972,3.972,0,0,0,1.288,2.924c-12.207,1.41-21.693,12.054-21.693,24.977,0,0.682.025,1.355,0.076,2.025h4.389Zm-8.914,1.494H898v5.069H840.2v-5.069Zm34.074,8.659c-2.939,1.41-13.183,5.08-13.183,5.08l-12.108-.75s6.925-1.91,9.61-2.51a1.821,1.821,0,0,0,.033-3.61c-1.487,0-14.446.53-14.446,0.53l-8.605,3.08,2.278,14.31s1.771-3.01,3.538-3.01,17.138,0.4,19.223,0,14.8-9.04,16.317-10.05S877.217,1005.69,874.271,1007.11ZM824,1010.47v18.54l13.183-2.45-3.3-17.82Z" transform="translate(-824 -963.031)"/>
</svg>
