<svg xmlns="http://www.w3.org/2000/svg" width="66" height="66" viewBox="0 0 66 66">
  <defs>
    <style>
      .cls-1 {
        fill: #fff;
        fill-rule: evenodd;
      }
    </style>
  </defs>
  <path id="zabota2.svg" class="cls-1" d="M659.639,1009.14a3.038,3.038,0,0,1-2.973-3.62c0.2-1.05,1.429-7.409,1.633-8.465-0.132.038-6.613-.02-6.613-0.02l-6.5-21.157a1.444,1.444,0,1,0-2.758.855l6.242,20.3h-4.743a1.814,1.814,0,0,0-1.81,1.818v20.577H637.57a1.167,1.167,0,0,0,.178-0.44l2.035-11.41a1.105,1.105,0,0,0-.238-0.9,1.09,1.09,0,0,0-.841-0.39H627.757a1.091,1.091,0,0,0-.841.39,1.105,1.105,0,0,0-.238.9l2.035,11.41a1.167,1.167,0,0,0,.178.44h-1.549a2.345,2.345,0,0,0-2.342,2.35v3.34a1.441,1.441,0,0,0,1.443,1.45h1.61c0-.01,0-0.03,0-0.05a5.749,5.749,0,0,1,.174-1.4,5.648,5.648,0,0,1,10.955,0,5.749,5.749,0,0,1,.174,1.4c0,0.02,0,.04,0,0.05h6.02c0-.01,0-0.03,0-0.05a5.748,5.748,0,0,1,.173-1.4,5.649,5.649,0,0,1,10.956,0,5.749,5.749,0,0,1,.174,1.4c0,0.02,0,.04,0,0.05h1.9a1.441,1.441,0,0,0,1.444-1.45v-15.98h-0.374Zm-8.617,13.63a3.605,3.605,0,1,0,3.587,3.6A3.6,3.6,0,0,0,651.022,1022.77Zm0,4.89a1.285,1.285,0,1,1,1.278-1.28A1.283,1.283,0,0,1,651.022,1027.66Zm-17.319-4.89a3.605,3.605,0,1,0,3.587,3.6A3.6,3.6,0,0,0,633.7,1022.77Zm0,4.89a1.285,1.285,0,1,1,1.277-1.28A1.283,1.283,0,0,1,633.7,1027.66Zm57.289-6.41a5.079,5.079,0,0,0-3.758-4.9l-0.028-26.817,0.749-.313a2.6,2.6,0,0,0-.754-4.994l-0.017-16.1a1.3,1.3,0,0,0-1.3-1.3h0a1.3,1.3,0,0,0-1.3,1.306l0.017,16.856-3.732,1.561c-0.728-1.818-1.367-3.258-1.872-4.735-0.968-2.829-2.464-4.534-4.458-5.092-1.134,3.214-1.542,4.368-2.268,6.426l2.641,16.747a1.366,1.366,0,0,1-1.343,1.582c-3.237-.01-6-0.02-10.2-0.02a1.276,1.276,0,0,1-1.254-1.491l0.563-3.288-2.462-1.2-2,10.349a1.443,1.443,0,0,0,1.414,1.72h1.978v19.32a3.112,3.112,0,1,0,6.223,0v-19.32h1.344v19.32a3.112,3.112,0,1,0,6.223,0v-19.32h1.978a1.441,1.441,0,0,0,1.414-1.72l-3.728-19.755c0.119,0.292,1.36,3.3,1.893,4.793a2.593,2.593,0,0,0,3.436,1.522l4.21-1.761,0.026,25.741a5.066,5.066,0,0,0-3.747,4.9v0.39l10.1-.01v-0.39Zm0,2.42-10.1.01,0,4.54c0,0.99,2.263,1.78,5.053,1.78s5.051-.8,5.05-1.79ZM668.511,964a5.4,5.4,0,1,1-5.373,5.395A5.383,5.383,0,0,1,668.511,964Zm-4.028,12.51,2.25,6.377h3.486c0.5-1.417,1.816-5.146,2.251-6.377h-7.987Zm2.226,14.477c-6.18-3.013-4.527-2.195-6.37-3.136,0,0,2.922-4.8,2.923-4.8l-1.107,3.858,2.016,0.983,0.561-4.6-2.314-6.556a4.917,4.917,0,0,0-2.468,1.755c-0.694.881-5.442,8.78-5.6,9.022a2.611,2.611,0,0,0,1.047,3.75l9.043,4.409A2.6,2.6,0,0,0,666.709,990.987Z" transform="translate(-625 -964)"/>
</svg>
